<?xml version="1.0" encoding="UTF-8"?>
<!-- Generator: visioncortex VTracer 0.6.12 -->
<svg version="1.1" xmlns="http://www.w3.org/2000/svg" width="512" height="532">
<path d="M0 0 C168.96 0 337.92 0 512 0 C512 175.56 512 351.12 512 532 C343.03999999999996 532 174.07999999999998 532 0 532 C0 356.44 0 180.88 0 0 Z M299.69921875 41.70703125 C297.10599493089154 43.90995799647854 294.4454439284219 45.986885840292345 291.75 48.0625 C287.95858578050144 51.08247504865423 284.81194457383526 54.26751363438299 281.72265625 57.9921875 C279.2896050491512 60.8279886728714 276.60299629828154 63.374753004074975 273.89453125 65.9453125 C271.5877707788018 68.44707746463968 269.8499049098034 71.14525230809615 268 74 C266.54166666666663 76.04166666666666 265.08333333333337 78.08333333333334 263.625 80.125 C259.4179267695337 86.12399079914442 256.051420480796 92.33033170451392 253 99 C252.6558203125 99.745078125 252.311640625 100.49015625 251.95703125 101.2578125 C251.30594404804015 102.69817684066219 250.67241694643658 104.14657991955022 250.0546875 105.6015625 C249.3035643052255 107.30967228367238 248.48874868468496 108.99036683366744 247.6328125 110.6484375 C242.91218796247043 120.35873771450383 241.0060511542741 130.51983250240926 239.00439453125 141.0458984375 C238.7709130859375 142.27083007812502 238.537431640625 143.49576171875 238.296875 144.7578125 C238.1955224609375 145.31025634765626 238.1955224609375 145.31025634765626 237.6826171875 148.10595703125 C237.05573412985217 150.7637080202905 236.5610182100004 152.76435129040783 235 155 C233.175048828125 155.741943359375 233.175048828125 155.741943359375 230.95703125 156.08984375 C230.13775146484375 156.2314794921875 229.3184716796875 156.373115234375 228.474365234375 156.51904296875 C228.03515747070313 156.58808837890626 228.03515747070313 156.58808837890626 225.8125 156.9375 C209.97615021528608 159.77661276699178 195.32950869938085 164.25119754412952 183 175 C182.34 175 181.68 175 181 175 C180.51490206784501 173.62708132408966 180.0372448676379 172.25153296549553 179.5625 170.875 C179.2956640625 170.109296875 179.028828125 169.34359375 178.75390625 168.5546875 C175.17884256029612 156.44022297634027 176.46256029531088 143.3678602414492 179.34375 131.26953125 C179.99013252388886 128.04916117562516 180.2344466877831 125.27287576145227 180 122 C178.375 119.5625 178.375 119.5625 176 118 C158.44881870641825 119.3326828202863 140.07880304139235 136.4536731947711 128 148 C127.6184375 148.4846875 127.6184375 148.4846875 125.6875 150.9375 C125.4090625 151.2778125 125.4090625 151.2778125 124 153 C123.01 153 122.02 153 121 153 C118.08729781557426 142.59621972046097 117.5462704561173 132.62038715054877 117.48876953125 121.90771484375 C117.47305393498141 119.87564062320222 117.4401139975497 117.8443398529818 117.40625 115.8125 C117.39916015625 114.6226953125 117.3920703125 113.432890625 117.384765625 112.20703125 C116.96828646275141 108.73566686212081 116.00783960583001 106.824272399194 114 104 C97.56728214944091 104.60861917965033 84.38470500461206 120.4577693739466 73.4375 131.3125 C72.66341796875 132.077236328125 71.8893359375 132.84197265625 71.091796875 133.6298828125 C67.20631899198915 137.53757319000476 63.93410831126436 141.309164419571 61 146 C59.585623569406515 147.92083209113386 58.13579377069018 149.81218273690843 56.6865234375 151.706787109375 C37.218246242964824 177.18052254418814 26.669650387389467 206.5887003261794 21 238 C20.80349853515625 239.05936767578126 20.6069970703125 240.1187353515625 20.404541015625 241.210205078125 C18.545643955940633 252.82397234607743 18.662716500702402 264.4800598814043 18.684326171875 276.214111328125 C18.687484339080367 279.7947441311952 18.663961233255314 283.3745469459975 18.638671875 286.955078125 C18.602211972262257 299.9677695631632 19.25394191536065 312.273219551928 22 325 C22.21374267578125 326.06468505859374 22.4274853515625 327.1293701171875 22.647705078125 328.226318359375 C29.248012462352 359.829642761741 43.4033718550173 390.3425590266721 63 416 C63.5736328125 416.7669921875 64.147265625 417.533984375 64.73828125 418.32421875 C68.52821747286629 423.31647956770666 72.60009228171978 427.98755890733884 76.83203125 432.609375 C78.67282124262123 434.6392190999715 80.43300759226281 436.7088768612521 82.1875 438.8125 C100.28502551022876 459.4420187582195 124.34645794820378 475.4163575773418 149.021484375 487.046142578125 C151.30835565861844 488.14866060688826 153.55865177360837 489.315639999561 155.81640625 490.4765625 C180.20709147552486 502.67536871475414 208.365766951765 508.10748447715196 235.46875 508.203125 C236.74367309570312 508.20882507324217 238.01859619140626 508.2145251464844 239.3321533203125 508.22039794921875 C242.02160184077582 508.22980506257124 244.71094002824285 508.23672350025885 247.400390625 508.240234375 C250.1192782604072 508.24460401584264 252.83784588606812 508.25845122654977 255.556640625 508.28125 C270.6667671877795 508.4053121384293 285.2174777952943 508.3294498877292 300 505 C301.0923193359375 504.770224609375 302.184638671875 504.54044921875 303.31005859375 504.3037109375 C324.3856642686045 499.6911932088211 343.21482335872554 492.52703270096634 362 482 C362.815654296875 481.55076171875 363.63130859375 481.1015234375 364.4716796875 480.638671875 C375.00751457122357 474.82722273945063 384.73923275128743 468.69956510716713 394 461 C394.5541357421875 460.5406103515625 395.108271484375 460.081220703125 395.67919921875 459.60791015625 C399.4864604262519 456.4436434740162 403.2508684829953 453.23287410222997 407 450 C407.71671875 449.3851171875 408.4334375 448.770234375 409.171875 448.13671875 C411.1302040585465 446.441388428655 413.06625713387626 444.72331681314967 415 443 C415.9242578125 442.1917578125 416.848515625 441.383515625 417.80078125 440.55078125 C428.63059693860845 430.9678136130146 437.2842425889861 420.26026773933586 445 408 C445.4242626953125 407.331943359375 445.848525390625 406.66388671875 446.28564453125 405.9755859375 C452.8492386281722 395.60907106896855 458.79861492749023 385.1126851414825 464 374 C464.2985791015625 373.3748046875 464.597158203125 372.749609375 464.90478515625 372.10546875 C472.0874093505011 356.9808584575824 477.31228356291166 341.0898160234962 480.375 324.625 C480.53057373046875 323.7953271484375 480.6861474609375 322.965654296875 480.846435546875 322.11083984375 C483.43412772956685 306.9042645128713 483.2391317323333 291.31513978357395 483.25 275.9375 C483.2510070800781 274.9427667236328 483.25201416015625 273.94803344726563 483.2530517578125 272.92315673828125 C483.24309714888017 258.3692256966234 482.7528303079862 244.3272985452643 480 230 C479.72925187422715 228.3973405166345 479.45972262822744 226.79447464791875 479.19140625 225.19140625 C475.0950744617265 202.21060910752976 465.75931240907 178.8929952586662 452 160 C451.6390625 159.49662109374998 451.6390625 159.49662109374998 449.8125 156.94921875 C431.3744741198627 131.75698547279853 431.3744741198627 131.75698547279853 417.0078125 127.27734375 C414.631905774721 126.949154299621 413.2190428794362 127.07923531973603 411 128 C409.73437499999994 129.62890625000006 409.73437499999994 129.62890625000006 408.75 131.5625 C408.1725 132.696875 407.595 133.83125 407 135 C402.51747625637796 131.340796943982 398.620173968399 127.59700152086224 394.875 123.19140625 C392.83862174989207 120.81138917018635 390.73671448222336 118.50085388590787 388.625 116.1875 C384.68826328297706 111.83566519376713 380.97916997423715 107.33768776441048 377.3359375 102.73828125 C375.4979634023078 100.58373301842435 373.652861470914 98.65132022186025 371.62890625 96.68359375 C367.87669388323826 92.98114947331186 364.71398478797516 88.96667418795518 361.5625 84.75 C360.99974365234374 84.00492187500001 360.4369873046875 83.25984375 359.857177734375 82.4921875 C358.2308725527324 80.3334290214826 356.6133466078182 78.16845426798244 355 76 C354.579765625 75.43603515625 354.15953125 74.8720703125 353.7265625 74.291015625 C349.80668267635195 69.01269469005327 346.02125806125224 63.660915306715005 342.42578125 58.15625 C341.4910980310303 56.74270167980467 340.53070259486117 55.34575160677699 339.54296875 53.96875 C335.7801497200916 48.647190633163824 333.04318921927614 43.09635290790713 330.447509765625 37.14013671875 C327.55622873436437 30.616350721963393 327.55622873436437 30.616350721963393 325 29 C315.0790641275479 27.822481008317414 306.78308505053093 35.674123715881656 299.69921875 41.70703125 Z " fill="#000000" transform="translate(0,0)"/>
<path d="M0 0 C0.4730859375000023 0.9925781250000014 0.9461718750000045 1.9851562500000028 1.43359375 3.0078125 C10.347516881529259 21.436623075694314 21.803720066555286 38.2130742153837 35.29638671875 53.613525390625 C37.388583660451786 56.01414170028997 39.256569218856725 58.39160564983396 41.00390625 61.05859375 C43.07481389485025 64.1102443499457 45.364990115030764 66.43005208749915 48 69 C50.28662913676999 71.72516075204098 52.50035252935578 74.50044190299525 54.71875 77.28125 C57.01483318939438 80.01767791064806 59.469395477713476 82.48114751109871 62 85 C67.4255713002753 91.16700789275666 72.52164623670654 97.50956422401435 77.15234375 104.296875 C79.41293028273907 107.60411787664992 81.73343669747311 110.86577619614951 84.0625 114.125 C84.49546386718748 114.73255126953126 84.92842773437502 115.34010253906251 85.37451171875 115.966064453125 C87.5728167214213 119.04175943489076 89.80716090623002 122.07520329331552 92.125 125.0625 C105.70308163676674 143.19189391724723 114.22255555917121 162.53652370866 117 185 C117.62922887680406 162.03798621877957 117.62922887680406 162.03798621877957 114 152 C113.61328125 150.9055859375 113.2265625 149.811171875 112.828125 148.68359375 C109.64328656877785 140.35779698689777 109.64328656877785 140.35779698689777 106.984375 138.87890625 C106.65695312499997 138.73388671875 106.65695312499997 138.73388671875 105 138 C103.76171875000011 136.44140625000014 103.76171875000011 136.44140625000014 102.6875 134.5625 C102.267265625 133.8509375 101.84703124999999 133.139375 101.4140625 132.40625 C100.94742187499997 131.6121875 100.48078125 130.818125 100 130 C98.86159386555727 128.18282588868294 97.71537324987673 126.3705302949609 96.5625 124.5625 C95.97597656250002 123.6330859375 95.38945312499999 122.703671875 94.78515625 121.74609375 C93.62497702372917 119.96139791615232 92.42589615426243 118.20119314367264 91.18359375 116.47265625 C90.62800781250002 115.6979296875 90.07242187499997 114.92320312499999 89.5 114.125 C88.9946875 113.446953125 88.489375 112.76890624999999 87.96875 112.0703125 C86.66935095946968 109.2933710020925 86.98278561381721 107.85385147234621 88 105 C91 103 91 103 94 103 C97.70052153370477 109.55955460906029 101.22891388879259 115.86987727710797 103.37890625 123.12109375 C104.21769650425 125.65856615436627 105.50668602342739 127.7955841298214 107 130 C106.59231861087488 124.83603573774843 104.62601776402022 121.09461142972819 102.265625 116.59765625 C100.73049820319818 113.44685588002096 99.72259579821173 110.25121038620591 98.69140625 106.91015625 C97.85026710551938 104.58633115592636 96.58170065993164 102.88297697610915 95 101 C95 100.34 95 99.68 95 99 C100.05296625028313 100.29261927332823 102.51959758629647 102.16263323617301 106 106 C106.40218749999997 106.3815625 106.40218749999997 106.3815625 108.4375 108.3125 C143.71242389739893 145.30815189239405 155.24818958892064 198.18673612033 154.33984375 247.609375 C154.06148866218143 259.0112464416055 152.7133834192186 269.9143532852747 150 281 C149.72091796874997 282.1461376953125 149.4418359375 283.292275390625 149.154296875 284.47314453125 C138.17181335203156 328.4905187785613 118.60605078199143 365.44732864702394 87.38525390625 398.53125 C86.05555585795531 399.9410955161334 84.73651542687264 401.36096976712054 83.41796875 402.78125 C68.7115691518639 418.12705827631595 49.86226584337243 430.3648658670294 31 440 C30.297460937499977 440.3648046875 29.59492187500001 440.729609375 28.87109375 441.10546875 C26.926468039900328 442.09871201875933 24.969452079421274 443.05705021651954 23 444 C22.35160156249998 444.3158203125 21.703203125000016 444.631640625 21.03515625 444.95703125 C14.661534857039157 447.936135476505 8.042877614025997 450.15159257566916 1.3408203125 452.259765625 C-0.30050273782592285 452.77879894671344 -1.9389621897740312 453.30693417049116 -3.5751953125 453.841796875 C-59.228277125077454 471.9374627507367 -121.32654420983934 467.37097928040794 -173.69775390625 441.18017578125 C-183.5670854614953 436.12096594688563 -192.88933489454837 430.3275441211835 -202 424 C-202.879140625 423.3980078125 -203.75828124999998 422.796015625 -204.6640625 422.17578125 C-215.98802139639074 414.20892521227375 -226.23936505654936 404.91886425078013 -236.0625 395.1875 C-236.669326171875 394.5899389648437 -237.27615234375 393.9923779296875 -237.9013671875 393.376708984375 C-242.04562257389685 389.203114755015 -245.5595825684804 384.7624324103379 -249 380 C-249.9016483361352 378.7966777683968 -250.8052432205451 377.5948112120457 -251.7109375 376.39453125 C-288.03456597768206 327.7392625000019 -303.5935500544455 267.5354361797248 -295 207.25 C-291.9061643672341 186.39032093304024 -286.96014583127334 165.71523698172592 -277 147 C-276.1647297355921 145.2717681316005 -275.3312413223874 143.54267330620698 -274.5 141.8125 C-269.2390196383369 131.47843143244745 -263.15653967856167 122.12180705143092 -256 113 C-255.3051953125 112.11054687500001 -254.610390625 111.22109375 -253.89453125 110.3046875 C-248.2909514288952 103.21621321953086 -242.54736770143361 96.24283897113438 -236 90 C-235.280703125 89.3090625 -234.56140625 88.618125 -233.8203125 87.90625 C-222.83955825451417 77.64386285468615 -222.83955825451417 77.64386285468615 -216 75 C-213.20703125 75.3515625 -213.20703125 75.3515625 -211 76 C-211.0348046875 77.2001171875 -211.069609375 78.400234375 -211.10546875 79.63671875 C-211.4289291054921 96.08817920175468 -210.24337205676932 113.26988382969202 -205 129 C-202.69 129 -200.38 129 -198 129 C-197.95552734375 128.55333984375 -197.95552734375 128.55333984375 -197.73046875 126.29296875 C-194.8761238714454 113.42552098197041 -175.21568847654447 102.48126613280084 -164.6953125 95.6640625 C-155.17062000267163 89.78360017556246 -155.17062000267163 89.78360017556246 -151.78125 90.41015625 C-151.1934375 90.6048046875 -150.605625 90.79945312500001 -150 91 C-150.0721875 91.683203125 -150.144375 92.36640625000001 -150.21875 93.0703125 C-153.99624232097213 134.09807631944759 -153.99624232097213 134.09807631944759 -147.0234375 143.73046875 C-146.6895703125 144.10494140625002 -146.6895703125 144.10494140625002 -145 146 C-144.731875 146.45375 -144.731875 146.45375 -143.375 148.75 C-140.15810587973914 153.64418521798444 -135.41782761966795 157.23551308464914 -131 161 C-130.105390625 161.7695703125 -129.21078125 162.539140625 -128.2890625 163.33203125 C-114.4788169802429 174.9460915939791 -98.11309632453165 183.9434518377342 -82 192 C-82 192.66 -82 193.32 -82 194 C-80.68 194.66 -79.36000000000001 195.32 -78 196 C-77.70276792565323 199.07500091460548 -77.74793811688315 200.6050801558796 -79.43359375 203.24609375 C-86.5421728907979 211.01980310280237 -93.1999870546073 216.65953576720582 -103.92578125 217.61328125 C-128.34686534538722 219.90930905022037 -149.0903701187236 224.16551541892477 -167 242 C-172.50578893406148 248.71892886868523 -175.2892151980766 254.5269869029014 -175.125 263.3125 C-175.10695312500002 264.5667578125 -175.08890624999998 265.821015625 -175.0703125 267.11328125 C-175.047109375 268.0658984375 -175.02390624999998 269.018515625 -175 270 C-175.66 270 -176.32 270 -177 270 C-177.8162744585458 267.60539411607414 -178.62811645486886 265.2094347410909 -179.4375 262.8125 C-179.66759765625 262.13896484375 -179.8976953125 261.4654296875 -180.134765625 260.771484375 C-181.98788697285102 255.2658339937035 -183.0896355599657 250.2793192523053 -183.31640625 244.48046875 C-183.35830078125 243.45888671875002 -183.4001953125 242.4373046875 -183.443359375 241.384765625 C-183.48267578125 240.32966796874996 -183.52199218750002 239.27457031250003 -183.5625 238.1875 C-183.60568359375 237.11306640625003 -183.6488671875 236.0386328125 -183.693359375 234.931640625 C-183.79910983291006 232.28787917724844 -183.9012023325209 229.64402889526832 -184 227 C-184.8855859375 226.925234375 -185.771171875 226.85046875 -186.68359375 226.7734375 C-206.69545877689336 224.64938939100614 -219.48098044291072 218.26733735086435 -233 203 C-235.15194369870204 199.77208445194694 -235.20086442745816 198.715991907976 -235 195 C-220.50364453061908 188.13330530397747 -207.07364719549727 184.62792483343756 -191 185 C-190.525625 185.002578125 -190.525625 185.002578125 -188.125 185.015625 C-176.75077913397735 185.45795581145643 -165.5420839928841 189.687140202551 -155.375 194.625 C-143.5162772309425 200.32454117582608 -130.0156541872395 202.19808355357557 -117 202.1875 C-115.9821240234375 202.1866943359375 -114.96424804687501 202.185888671875 -113.91552734375 202.18505859375 C-106.2559536620602 202.12312134025925 -98.44241521773665 202.0027761881617 -91 200 C-90.66999999999999 199.34 -90.34 198.68 -90 198 C-90.4323193359375 198.0078552246094 -90.4323193359375 198.0078552246094 -92.6201171875 198.047607421875 C-134.6486704509157 198.70901294135905 -134.6486704509157 198.70901294135905 -153 191 C-178.38135079768693 180.89968224043415 -205.86143794460116 177.22094340005654 -231.8125 188 C-237.70429252782196 190.55643879173294 -237.70429252782196 190.55643879173294 -240 194 C-240 202.323579889602 -234.80123952421104 208.28615569132282 -229.3125 214.125 C-219.4185638782813 223.58548749162435 -207.77352606957578 228.41911643128856 -194.56640625 231.19140625 C-191.71429062084712 232.09001802356875 -190.58899699625243 232.46704439211248 -189 235 C-188.69060725948503 237.60008899240472 -188.5405400908029 240.02022625208048 -188.5 242.625 C-187.8269843421408 260.2693851484382 -184.87522490222426 276.7039297059963 -174 291 C-173.29874999999998 292.11375 -172.5975 293.2275 -171.875 294.375 C-169.85237214629706 297.2066789951841 -167.72751873827607 298.8569495627831 -165 301 C-163.4860957452054 302.66609568781627 -162.0488526520514 304.3776832584257 -160.625 306.12109375 C-142.7935084879876 326.73875581076436 -115.3440502361245 343.26606961707904 -88 346 C-58.52698766795959 347.9858489283733 -31.06756556825985 343.5514039824782 -8 324 C-6.9481250000000045 323.21625 -5.896250000000009 322.4325 -4.8125 321.625 C12.992699266597867 305.006814017842 24.187276454276457 279.88227961662744 25.22265625 255.62109375 C25.92434353935255 229.23166829035665 18.937465943857717 204.7696288573984 1 185 C-3.4201516737443285 180.70921861914576 -8.129598833556486 176.77063316111756 -13 173 C-12.670000000000016 172.01 -12.339999999999975 171.02 -12 170 C-4.976413209058933 169.66621983905537 0.5569021690772615 170.66145281710556 7.1875 172.9375 C8.100800781249973 173.2467138671875 9.014101562500002 173.555927734375 9.955078125 173.87451171875 C22.614123663082694 178.3844637269515 32.73136902037612 185.28264666129888 41 196 C41.62519531250001 196.7927734375 42.25039062500002 197.585546875 42.89453125 198.40234375 C55.48044592737233 215.03830836428645 62.985162736649784 234.8386141910952 62.992919921875 255.790771484375 C62.99816060495431 257.4260453183276 63.037391648755886 259.06128841622996 63.094970703125 260.695556640625 C63.28897007464741 268.574266902821 62.1084560785971 275.75642073154177 60.4375 283.4375 C59.94819998574263 285.7051436692084 59.46737778427587 287.97463746085646 58.99609375 290.24609375 C58.78138427734376 291.23279052734375 58.56667480468752 292.2194873046875 58.345458984375 293.236083984375 C57.9861231869757 296.1110243111294 58.268082350657494 298.21375508823894 59 301 C62.33800489926102 299.55774398561994 64.43843466220477 297.7477814436267 66.9375 295.125 C69.0900221274207 292.9089347839469 71.123660376732 290.90348458401405 73.5625 289 C81.70057030863813 282.3226089775277 87.78920866115845 272.9986836526335 93.5078125 264.2578125 C94.45806930818696 262.819989371382 95.43001326439054 261.3961015904461 96.4296875 259.9921875 C109.64802192497973 241.2007174796234 116.28367427149692 219.94036583438663 116 197 C115.87471923828127 197.73001220703125 115.74943847656249 198.4600244140625 115.620361328125 199.212158203125 C115.0330495488991 202.58180959495564 114.42292512901719 205.9469620498663 113.8125 209.3125 C113.71420898437498 209.88645507812498 113.71420898437498 209.88645507812498 113.216796875 212.791015625 C111.97073817392561 219.55807287852713 110.23230863329076 225.43885527371629 107.171875 231.611083984375 C106.02317743943894 233.9527518239771 105.08522103818768 236.30274726883488 104.1875 238.75 C102.41205299160856 243.2647081070525 100.264150669233 247.5284380038658 98 251.8125 C97.66766357421875 252.44704101562502 97.3353271484375 253.08158203125004 96.992919921875 253.7353515625 C94.97586554701763 257.48676520681306 92.74049752741189 260.7470517154298 90 264 C89.07715955906644 265.22453827739264 88.16012298854383 266.4534803008273 87.25 267.6875 C83.61715093679032 272.5527586188302 79.8226014303703 277.2830839492739 76 282 C75.51144531249997 282.60328125 75.022890625 283.2065625 74.51953125 283.828125 C68.11891657010432 291.6270278099652 68.11891657010432 291.6270278099652 64 293 C63.944599136463296 291.2087054123135 63.90659473055888 289.41687257598204 63.875 287.625 C63.85179687499999 286.627265625 63.82859374999998 285.62953125 63.8046875 284.6015625 C63.96517264721746 281.6422163853104 64.35037715962676 279.18006885766533 64.98828125 276.3125 C66.18691993292924 270.6445599646184 66.34467946689523 265.1542457067532 66.3125 259.375 C66.30758544921878 258.32248046875 66.3026708984375 257.2699609375 66.297607421875 256.185546875 C66.16731817445486 247.44614504804895 65.19650514424092 239.46588217537385 63 231 C62.83902832031248 230.35160156250004 62.678056640625016 229.70320312499996 62.51220703125 229.03515625 C58.798101343262715 214.39280299015383 51.93838534802427 201.83276459440725 42.06640625 190.3984375 C39.70534788081676 187.6580030223469 37.58428921473421 184.79403488731273 35.484375 181.8515625 C34 180 34 180 31.65625 177.69140625 C28.738002223305102 174.73453460567237 26.266847277633985 171.60769303950426 23.75 168.3125 C11.12265234373723 152.14089263257048 -2.804633559482511 140.50868966610682 -21 131 C-21.839179687500007 130.53078125 -22.678359375000014 130.0615625 -23.54296875 129.578125 C-38.842642449432276 121.69721199743077 -57.32173223209645 120.23455383473944 -74.216064453125 119.2177734375 C-76 119 -76 119 -77 118 C-79.55590414527069 92.6867185612615 -64.45361541856471 60.3467377643954 -49 41 C-47.497336422345086 38.96029292540152 -45.99741600529512 36.91856259626752 -44.5 34.875 C-37.491647250040614 25.606274093483755 -30.16390747289921 18.164011372685053 -21 11 C-20.575898437499973 10.659687500000004 -20.575898437499973 10.659687500000004 -18.4296875 8.9375 C-16.24630323136637 7.1964090076490805 -14.043869262710928 5.491421940415009 -11.8125 3.8125 C-11.138320312500014 3.3033203124999986 -10.464140625000027 2.794140624999997 -9.76953125 2.26953125 C-6.404304940233658 -0.14481433647696207 -4.1021417920675844 -0.08917699547973257 0 0 Z M-189 130 C-189.32999999999998 130.66 -189.66 131.32 -190 132 C-189.07662841796875 132.14622802734374 -188.1532568359375 132.2924560546875 -187.201904296875 132.443115234375 C-183.77432982213398 132.98715069687088 -180.34713288399365 133.53345425186737 -176.920166015625 134.081298828125 C-175.43723804736283 134.31788624263507 -173.95416564789144 134.55357021301685 -172.470947265625 134.788330078125 C-170.33831735199493 135.1260381293962 -168.2062289555244 135.46699800564593 -166.07421875 135.80859375 C-164.79119873046875 136.01282958984376 -163.5081787109375 136.2170654296875 -162.186279296875 136.427490234375 C-159 137 -159 137 -156 138 C-156 137.34 -156 136.68 -156 136 C-166.24382485125358 129.9742206757332 -177.34281506592853 129.62192913727336 -189 130 Z M114 306 C113.56429687500003 306.8830078125 113.12859375 307.766015625 112.6796875 308.67578125 C103.76344723693467 326.6798249730431 94.41581974040548 344.7080984808587 80 359 C79.36062500000003 359.804375 78.72125 360.60875 78.0625 361.4375 C76.15778720765474 363.80396134806534 74.17922592707953 365.8888748831417 72 368 C71.36062500000003 368.639375 70.72125 369.27875 70.0625 369.9375 C69.38187499999998 370.618125 68.70125000000002 371.29875 68 372 C67.29874999999998 372.721875 66.59750000000003 373.44375 65.875 374.1875 C60.01909347053527 380.02527678788744 54.012468551017264 385.5968220726171 47 390 C46.254921875000036 390.605859375 45.50984374999996 391.21171875 44.7421875 391.8359375 C41.7557487687493 394.1927566696765 38.64394919992964 396.2739775210234 35.4375 398.3125 C35.13001831054686 398.50799438476565 35.13001831054686 398.50799438476565 33.573974609375 399.497314453125 C31.71930679516288 400.67025619359913 29.860143239073068 401.835766792728 28 403 C26.99195312500001 403.636796875 25.983906250000018 404.27359375000003 24.9453125 404.9296875 C17.270175144871132 409.60964930190784 9.387181416276178 412.83890362023664 1 416 C0.24138671874999318 416.3218627929688 -0.5172265625000136 416.6437255859375 -1.298828125 416.975341796875 C-40.178885918141646 431.7240405096204 -86.85035151463083 430.12865594524374 -126.568359375 420.5830078125 C-128.64017232500152 420.0862719365358 -130.71798961689956 419.6146895715184 -132.796875 419.1484375 C-138.04869508960905 417.9354536721969 -142.7151402267147 416.3688338106241 -147.5703125 414.0390625 C-151.61504129746692 412.30932317503823 -155.8493754292922 411.2056099462066 -160.08203125 410.02734375 C-162.96286133812194 409.0130755931378 -164.60985406240758 407.84181834014475 -167 406 C-170.04112686112865 404.6610877712078 -173.12272234130756 403.4767745729444 -176.22265625 402.28125 C-178.86581673405084 401.06190170356024 -180.04336683714783 400.0541938191717 -182 398 C-184.15625000000003 396.83203125 -184.15625000000003 396.83203125 -186.5 395.8125 C-186.88671875 395.64041015625 -186.88671875 395.64041015625 -188.84375 394.76953125 C-191 394 -191 394 -194 394 C-192.97062468497046 397.4107659692023 -191.7425261394546 398.1596457969815 -188.6484375 400.078125 C-187.23036164231144 400.81454704374323 -185.8053600750588 401.5377313566161 -184.375 402.25 C-183.61372802734377 402.6391357421875 -182.8524560546875 403.028271484375 -182.068115234375 403.42919921875 C-180.4863085896329 404.2355591358815 -178.90187594013412 405.03678713801804 -177.31494140625 405.8330078125 C-175.1821170649897 406.90819240976055 -173.0640745328634 408.007188991161 -170.94921875 409.1171875 C-141.06984548825994 424.6676513871609 -108.04494551253492 432.18869239720834 -74.42626953125 432.185302734375 C-72.03269134137307 432.18747039423704 -69.6395897045395 432.2056290260299 -67.24609375 432.224609375 C-51.0885477890929 432.286860906019 -35.69365493082216 430.58109408435706 -20 426.6875 C-18.781835937499977 426.40455078125 -17.56367187500001 426.1216015625 -16.30859375 425.830078125 C-9.790422245275295 424.2444819283275 -4.054411332763493 422.30476368269706 1.8544921875 419.126708984375 C4.681845214227849 417.6419303978537 7.588742957534009 416.66317068734327 10.625 415.6875 C28.586176486395857 409.4409803335503 45.74767758089956 399.5587594155962 60 387 C60.794062499999995 386.3155078125 61.58812499999999 385.63101562500003 62.40625 384.92578125 C84.95875019194295 365.11912117882935 106.46476678875484 340.4629684888174 115 311 C115.125 308.13281250000017 115.125 308.13281250000017 115 306 C114.67000000000002 306 114.33999999999997 306 114 306 Z M-271 314 C-270.6495042514497 317.24208567409016 -270.437788193854 318.6152770417647 -267.9375 320.8125 C-267.298125 321.204375 -266.65875 321.59625 -266 322 C-267.625 316.25 -267.625 316.25 -271 314 Z M-266 322 C-265.4973703344963 326.5040840155526 -264.5088420959395 329.24416406507044 -261.8125 332.875 C-261.1769921875 333.738671875 -260.541484375 334.60234375 -259.88671875 335.4921875 C-259.57541015625 335.9059765625 -259.57541015625 335.9059765625 -258 338 C-257.5114453125 338.683203125 -257.022890625 339.36640625 -256.51953125 340.0703125 C-251.05505157658655 347.631805381418 -244.67495651906728 354.49619621219085 -238 361 C-237.40703125 361.60328125 -236.8140625 362.2065625 -236.203125 362.828125 C-226.67495577445584 372.5040177794285 -216.2628352323075 381.08690781576047 -205.1875 388.9375 C-204.1291796875 389.6890234375 -203.070859375 390.440546875 -201.98046875 391.21484375 C-199.17656010864442 392.89424905681454 -197.2133612711416 393.6258008131573 -194 394 C-195.43450188288534 390.4405942585091 -197.0755832771526 389.0019921916098 -200.3125 387 C-203.74246565957466 384.85699938417065 -206.86171057028238 382.552475402837 -210 380 C-211.0994025129285 379.14694851730803 -212.20111113397164 378.29686367678244 -213.3046875 377.44921875 C-219.57691013833787 372.6080837098831 -225.5755406920828 367.79903833941023 -231 362 C-231.39380859375 361.60748046875 -231.39380859375 361.60748046875 -233.38671875 359.62109375 C-242.29863913682817 350.6825308508046 -249.96383714167106 341.1404337029804 -257.234375 330.83203125 C-257.94078125 329.8355859375 -258.6471875 328.839140625 -259.375 327.8125 C-260.001484375 326.9114453125 -260.62796875 326.010390625 -261.2734375 325.08203125 C-263 323 -263 323 -266 322 Z " fill="#000000" transform="translate(322,38)"/>
<path d="M0 0 C0.6420336914062545 0.0033837890624965894 0.6420336914062545 0.0033837890624965894 3.89111328125 0.0205078125 C27.80794668403348 0.27998146869268226 53.42566537990888 4.315015475979635 72.9375 19.25 C73.58460937500001 19.708906249999984 74.23171875000003 20.167812499999997 74.8984375 20.640625 C83.31669947611636 26.696449820763547 91.82267068370356 33.80667607650457 97.9375 42.25 C97.9375 42.91 97.9375 43.56999999999999 97.9375 44.25 C96.62361248190291 43.98598004955494 95.31147660580973 43.713246363272816 94 43.4375 C93.2691015625 43.2866796875 92.538203125 43.135859374999995 91.78515625 42.98046875 C88.9375 42.25 88.9375 42.25 87.072021484375 41.512939453125 C80.31026577877276 38.89810518106265 74.06113693005273 38.90078081923136 66.875 39.0625 C65.72322265624996 39.076035156249986 64.57144531250003 39.0895703125 63.384765625 39.103515625 C60.568510279381144 39.13857274548488 57.75326235151158 39.1877114397567 54.9375 39.25 C55.6640625 44.98437500000003 55.6640625 44.98437500000003 58.125 47.375 C59.9850692587201 48.61504617248008 61.857459273004224 49.83682638862945 63.7421875 51.0390625 C67.02101752275337 53.3077884081643 69.96313244085252 55.790701265837214 72.875 58.5 C73.39787597656249 58.98525146484374 73.92075195312498 59.470502929687484 74.45947265625 59.970458984375 C91.43500017168884 75.90178376916165 100.3273190260386 96.26561702634933 101.140625 119.625 C101.37873142536205 133.827437743548 100.13301752121606 147.2632421189894 93.9375 160.25 C93.68484375000003 160.80558593749998 93.68484375000003 160.80558593749998 92.40625 163.6171875 C88.81383252032015 171.31284212420098 84.52376775074657 177.8263901881137 78.9375 184.25 C78.174375 185.260625 77.41125 186.27125 76.625 187.3125 C67.63412432041576 197.13973620791762 56.99067486399565 203.81725877259305 44.625 208.4375 C43.75166015625001 208.77974609374996 42.87832031250002 209.12199218750004 41.978515625 209.474609375 C30.89530842541251 213.67464742340883 20.424828891482832 214.59347067950523 8.625 214.5625 C7.408769531250016 214.57861328125 6.192539062500003 214.5947265625 4.939453125 214.611328125 C-6.5313917832233415 214.6174199173039 -17.667032808192175 212.946754340292 -28.125 208.0625 C-28.787819824218758 207.7613427734375 -29.450639648437516 207.46018554687498 -30.133544921875 207.14990234375 C-48.291758299753496 198.68085420703198 -64.20019053181431 186.17155692662942 -75.0625 169.25 C-75.66191406249999 168.33347656249998 -76.261328125 167.41695312499996 -76.87890625 166.47265625 C-83.41574911627836 155.95441016927134 -89.5346696819388 142.9132000974131 -87.0625 130.25 C-82.44183405663759 118.55551455789004 -72.01474978599097 111.52644299081999 -61.0625 106.25 C-49.50812237553322 101.51057297160389 -37.91054099307121 98.68911102206965 -25.42578125 97.9765625 C-14.803442330143639 97.28655546715765 -7.990027975888097 95.93017920908972 -0.0625 88.25 C0.42750488281251364 87.79286621093752 0.9175097656249989 87.33573242187498 1.42236328125 86.86474609375 C12.613989459008224 76.42040330171923 12.613989459008224 76.42040330171923 13.25 70.1875 C12.880438149218833 66.71361860265716 12.573190719876436 66.39183421024583 9.9375 64.25 C7.620584069331301 62.892786991593596 5.316076705558487 61.61294845327225 2.9375 60.375 C2.2632397460937455 60.01913818359375 1.588979492187491 59.66327636718751 0.894287109375 59.296630859375 C-2.8531334776892265 57.337640584568646 -6.623581113844523 55.50585193352606 -10.5 53.8125 C-22.161529401076336 48.58910662243454 -32.35855473252238 42.702381994854306 -41.51171875 33.73046875 C-44.0625 31.25 -44.0625 31.25 -46.71484375 29.14453125 C-48.81552431668203 27.449306499848944 -50.35249070325864 25.91585121293849 -51.9375 23.75 C-52.368046875000005 23.18281250000001 -52.79859375000001 22.615624999999994 -53.2421875 22.03125 C-54.33166459231424 19.665528313831942 -53.92976508006359 18.67064477635364 -53.0625 16.25 C-47.69315831509584 11.679883735040988 -41.75295806397338 9.164569791105919 -35.25 6.5625 C-34.31607421875 6.172558593750011 -33.38214843750001 5.782617187499994 -32.419921875 5.380859375 C-21.500085990096096 0.9477545917461612 -11.75346287203945 -0.08912287182354817 0 0 Z " fill="#000000" transform="translate(240.0625,163.75)"/>
</svg>
