<?xml version="1.0" encoding="UTF-8"?>
<!-- Generator: visioncortex VTracer 0.6.12 -->
<svg version="1.1" xmlns="http://www.w3.org/2000/svg" width="395" height="399">
<path d="M0 0 C2.323269542056579 -0.0021739889663656697 4.64605296456341 -0.020360943803895637 6.96923828125 -0.039306640625 C20.81198685872775 -0.09246056636342193 34.49065526640291 0.996951663486346 47.97314453125 4.310302734375 C48.841005859375 4.522031250000001 49.708867187500005 4.733759765624999 50.60302734375 4.951904296875 C71.65688000777635 10.338478332183648 91.02135730279667 19.645487599567375 108.72314453125 32.185302734375 C109.59841796875003 32.786005859375 110.47369140625 33.386708984375 111.37548828125 34.005615234375 C127.33743714191058 45.20945011748183 141.81499800563745 58.75185293439864 153.72314453125 74.185302734375 C154.50302734374998 75.186904296875 155.28291015625 76.188505859375 156.08642578125 77.220458984375 C176.55051175995334 104.24834197211415 196.14087714060577 147.28438315575477 191.72314453125 182.185302734375 C187.25424630383634 186.28179277617085 181.32150030088883 186.54856100220863 175.48486328125 186.454833984375 C167.05010907573273 185.63164015102183 159.78211509044007 181.3199388224533 152.66943359375 177.003662109375 C146.6462836074872 173.37929707416296 141.88184782784305 171.9167577691384 134.84814453125 172.060302734375 C133.69572265624998 172.078349609375 132.54330078125003 172.096396484375 131.35595703125 172.114990234375 C130.48712890625 172.138193359375 129.61830078125 172.161396484375 128.72314453125 172.185302734375 C129.23679475208036 173.65373807157232 129.78539838401508 175.10997323296468 130.34814453125 176.560302734375 C130.64978515625 177.372412109375 130.95142578125 178.184521484375 131.26220703125 179.021240234375 C133.30612391205244 182.0488604267936 135.2331550499843 182.30433451580308 138.72314453125 183.185302734375 C147.02914986105907 185.47115161260584 154.49296732520344 188.31764955284828 162.078125 192.367431640625 C169.2541314400704 196.1572543342229 175.59621660605285 197.48997293665016 183.66064453125 197.310302734375 C184.4398828125 197.301279296875 185.21912109375 197.292255859375 186.02197265625 197.282958984375 C187.92249899756285 197.2596396427638 189.82286461134362 197.22377859327074 191.72314453125 197.185302734375 C191.77713439626166 199.4558765018102 191.81593194802144 201.72681561676058 191.84814453125 203.997802734375 C191.87134765625 205.262373046875 191.89455078125002 206.526943359375 191.91845703125 207.829833984375 C191.72314453125 211.18530273437506 191.72314453125 211.18530273437506 189.72314453125 214.185302734375 C179.10143684244082 217.1758806273407 169.88795232811896 212.03097088453993 160.69140625 207.274658203125 C153.4356257452418 203.60400185280153 146.81045268285794 201.98515534842264 138.72314453125 201.185302734375 C139.38314453125003 204.485302734375 140.04314453125 207.785302734375 140.72314453125 211.185302734375 C141.0821484375 211.271669921875 141.0821484375 211.271669921875 142.89892578125 211.708740234375 C151.21700767662054 213.96694926699118 158.33080798780617 217.37268934582838 165.833740234375 221.567626953125 C171.00150308192752 224.4247169229243 176.07288744654085 226.48683143712026 181.72314453125 228.185302734375 C183.72314453125 228.85196940104166 185.72314453125 229.51863606770834 187.72314453125 230.185302734375 C187.24825555555873 232.165500161314 186.76811594593858 234.14443908658492 186.28564453125 236.122802734375 C186.01880859375 237.224951171875 185.75197265625002 238.327099609375 185.47705078125 239.462646484375 C184.72314453125 242.185302734375 184.72314453125 242.185302734375 183.72314453125 243.185302734375 C177.54946450299798 242.84044218515172 173.18004718599371 241.28876718928709 167.78564453125 238.372802734375 C166.38252681809416 237.64652112201935 164.978884444833 236.92125217179498 163.57470703125 236.197021484375 C162.90987304687502 235.8494580078125 162.24503906249998 235.50189453125 161.56005859375 235.143798828125 C155.38093842969818 231.9195529796312 150.77669141630935 229.58500087181676 143.72314453125 230.185302734375 C143.72314453125 233.155302734375 143.72314453125 236.125302734375 143.72314453125 239.185302734375 C144.35542968749996 239.375439453125 144.35542968749996 239.375439453125 147.55517578125 240.337646484375 C153.17422421369258 242.21066262852253 158.2235261359799 244.91812739473303 163.41064453125 247.747802734375 C174.32535325349 253.67248892684358 174.32535325349 253.67248892684358 179.72314453125 255.185302734375 C179.24703793713286 260.1844219726049 177.6915223458791 263.16362956616786 174.72314453125 267.185302734375 C167.83299053945962 266.66989751451666 163.1119595479812 263.9295746259417 157.21533203125 260.511474609375 C152.0931614593457 257.6466109592132 147.50729317781196 256.2291875492871 141.72314453125 255.185302734375 C141.39314453125002 258.485302734375 141.06314453124997 261.785302734375 140.72314453125 265.185302734375 C142.06376953125 265.494677734375 143.40439453124998 265.804052734375 144.78564453125 266.122802734375 C153.52937285237687 268.70333000393396 161.19976131674895 274.1697139247076 168.72314453125 279.185302734375 C167.49787423877444 283.2381198556402 166.0243395894699 286.62891037167157 163.72314453125 290.185302734375 C158.29061746801239 288.5169803800783 153.3630515106691 286.1800697312384 148.28955078125 283.663818359375 C144.2262774265281 281.7069658541869 141.31471035926216 280.95056370571035 136.72314453125 280.185302734375 C137.38314453125003 276.225302734375 138.04314453125 272.265302734375 138.72314453125 268.185302734375 C137.96001953125 268.216240234375 137.96001953125 268.216240234375 134.09814453125 268.372802734375 C125.18875994348173 268.3104120860013 119.069981846958 263.0931295638186 112.72314453125 257.185302734375 C112.72314453125 256.525302734375 112.72314453125 255.865302734375 112.72314453125 255.185302734375 C112.06314453124997 255.185302734375 111.40314453125 255.185302734375 110.72314453125 255.185302734375 C110.55041015625 254.29971679687503 110.37767578124999 253.414130859375 110.19970703125 252.501708984375 C107.25245683192287 239.50947301394666 100.93590970180753 229.1499672637429 93.34814453125 218.310302734375 C88.22673896701758 210.7591394166573 85.30221171711952 202.30295495837896 86.72314453125 193.185302734375 C87.8186971948058 188.5574622170926 89.15700677624312 184.00599458618 90.53173828125 179.454833984375 C95.19978879186016 163.43124708464796 92.23518108837402 144.55797372164795 84.26220703125 130.017333984375 C82.12072882504884 127.46821398765334 79.5340393172985 125.93146464692029 76.72314453125 124.185302734375 C76.92472167968748 124.70326416015627 77.12629882812502 125.2212255859375 77.333984375 125.7548828125 C85.08530441415428 145.81437301147167 86.8562220656708 160.34100024514203 81.24169921875 181.239501953125 C77.98319004686664 193.46658203782863 75.70884781508562 203.31296272387732 82.201171875 214.800537109375 C83.96098035325838 217.5818929481833 85.76453870057128 220.3270483048602 87.59814453125 223.060302734375 C96.4130016200807 236.25475197681428 101.9989098874891 247.0372590471839 100.72314453125 263.185302734375 C99.56369190348374 267.58281218269065 97.65152112600543 271.43204070624677 95.53173828125 275.435302734375 C92.71888466088234 280.76698346427054 92.71888466088234 280.76698346427054 92.74267578125 283.103271484375 C94.25671975375684 286.31835290806487 96.92676525684311 288.0697548972074 99.72314453125 290.122802734375 C100.31474365234374 290.563017578125 100.90634277343747 291.003232421875 101.515869140625 291.456787109375 C110.11711493536592 297.7666264371295 116.9698720837398 300.96623462272834 127.72314453125 302.185302734375 C127.98869140624998 301.570419921875 128.25423828125003 300.955537109375 128.52783203125 300.322021484375 C128.88103515625 299.513779296875 129.23423828125 298.705537109375 129.59814453125 297.872802734375 C129.94619140625002 297.072294921875 130.29423828125 296.271787109375 130.65283203125 295.447021484375 C131.72314453125 293.185302734375 131.72314453125 293.185302734375 133.72314453125 290.185302734375 C139.1967634173542 290.72921123567556 143.30631454107385 292.73924074132617 148.09814453125 295.247802734375 C148.83419921874997 295.624853515625 149.57025390625 296.001904296875 150.32861328125 296.390380859375 C152.13054099178373 297.3147463732202 153.92737552403912 298.2490288695703 155.72314453125 299.185302734375 C154.04918148248578 303.7769677326208 151.9293142691534 306.5572685572738 148.72314453125 310.185302734375 C143.33479501668728 308.43408914214217 143.33479501668728 308.43408914214217 140.75439453125 307.384521484375 C136.56644458064466 305.68518025441784 133.32974776953927 304.8398074915033 128.72314453125 305.185302734375 C128.22814453125 306.340302734375 128.22814453125 306.340302734375 125.72314453125 312.185302734375 C126.41021484375 312.450849609375 127.09728515625 312.716396484375 127.80517578125 312.989990234375 C128.70623046875 313.343193359375 129.60728515625 313.696396484375 130.53564453125 314.060302734375 C131.42896484375 314.408349609375 132.32228515625002 314.756396484375 133.24267578125 315.114990234375 C135.7231445312501 316.18530273437506 135.7231445312501 316.18530273437506 138.72314453125 318.185302734375 C137.5997727850007 322.11710384624746 135.80559511867108 324.8245819276358 132.56689453125 327.380615234375 C128.92854529057303 328.9685388436535 125.34688728043722 327.28381255113413 121.72314453125 326.185302734375 C118.84814453125 325.747802734375 118.84814453125 325.747802734375 116.72314453125 326.185302734375 C114.90431444183969 328.56859733429195 113.72314453125 330.1434861045483 113.72314453125 333.185302734375 C114.71314453125001 333.824677734375 115.70314453125002 334.464052734375 116.72314453125 335.122802734375 C117.71314453125001 335.803427734375 118.70314453125002 336.484052734375 119.72314453125 337.185302734375 C119.72314453125 338.175302734375 119.72314453125 339.165302734375 119.72314453125 340.185302734375 C118.25439453124994 341.61499023437506 118.25439453124994 341.61499023437506 116.22314453125 343.060302734375 C115.49869140624997 343.575927734375 114.77423828125 344.091552734375 114.02783203125 344.622802734375 C104.34814453125011 351.185302734375 104.34814453125011 351.185302734375 101.72314453125 351.185302734375 C101.25005859375 350.192724609375 100.77697265625 349.200146484375 100.28955078125 348.177490234375 C96.255362940216 339.8459480392695 91.90106785481703 332.03169234239505 86.70361328125 324.368896484375 C81.53527130157369 316.06081223696634 80.55496344750475 308.80899808201985 80.72314453125 299.185302734375 C77.69110320924676 301.84241421548535 77.12097514019001 303.91257026612146 76.80517578125 307.966552734375 C76.77810546875003 308.698740234375 76.75103515625 309.430927734375 76.72314453125 310.185302734375 C76.68576171874997 310.855615234375 76.64837890625 311.525927734375 76.60986328125 312.216552734375 C76.84893581127608 322.0736970492957 84.34137340379863 331.08615516131533 89.53564453125 339.060302734375 C92.76947654000475 344.0923525420483 95.72314453125 348.83853509076516 95.72314453125 354.997802734375 C94.33898151595332 358.02565933033645 92.70307825029698 358.79928705109734 89.72314453125 360.185302734375 C88.39518162620391 360.5394261757206 87.06246138055559 360.87688861982275 85.72314453125 361.185302734375 C85.53880859374999 360.432490234375 85.35447265624998 359.679677734375 85.16455078125 358.904052734375 C81.90648896801798 346.97230636058316 75.72474846082474 337.11231619852543 69.34814453125 326.622802734375 C64.25474105848582 318.1714213488189 61.53741856350911 310.4600068381343 63.855712890625 300.629150390625 C65.46820087108665 296.08622759737386 68.44673648562798 292.5567683477705 71.41064453125 288.810302734375 C72.68500786737525 287.13751850277845 73.9571640270268 285.4630503761141 75.22705078125 283.786865234375 C75.53070556640625 283.3893505859375 75.53070556640625 283.3893505859375 77.0673828125 281.377685546875 C83.41431166826936 272.97376028518096 88.70966512052922 264.27965860942027 90.22314453125 253.685302734375 C88.64834498381146 242.66170590230516 82.92022785394204 233.8570369542291 76.41064453125 225.060302734375 C69.82576257501546 216.11913885456897 64.68672833844226 207.11794475068476 66.23779296875 195.679443359375 C67.15961645086622 190.94234643115598 68.6683855605134 186.39345248563933 70.16064453125 181.810302734375 C76.32243305168845 162.8040437105072 78.07760148255699 147.30550933729197 69.28564453125 128.747802734375 C66.06829481060038 122.68698491198916 62.76098031397942 118.63693219016864 56.72314453125 115.185302734375 C57.25423828125 116.094091796875 57.78533203124999 117.002880859375 58.33251953125 117.939208984375 C66.70426080629738 132.6570150066701 71.80231960139196 148.28292547972796 67.72314453125 165.372802734375 C65.18895989294515 173.47973320351534 61.765166939075584 181.3386668610054 58.5234375 189.183349609375 C55.903322649123766 195.73763325098125 55.4485703274691 203.0816502745384 57.55908203125 209.876708984375 C60.22311337948008 215.44614364862775 63.912015029362635 220.20077465310254 67.59423828125 225.126708984375 C74.68216766728978 235.3099176252358 80.84220032737016 246.428066658605 79.72314453125 259.185302734375 C78.13188518613151 267.28897177431645 74.54441061815493 272.7197972926605 69.41064453125 279.060302734375 C60.468716831284496 290.52373899591043 53.249526728880824 301.04722894640065 54.72314453125 316.185302734375 C56.27752936441263 323.14416406438005 60.33823047783255 328.7794627539963 64.22314453125 334.622802734375 C71.20139654432978 345.1555803535911 74.53044679189554 353.33574175243353 73.72314453125 366.185302734375 C72.099875828878 366.8561739324033 70.47446875008688 367.5218730247078 68.84814453125 368.185302734375 C67.94322265624999 368.556552734375 67.03830078124997 368.927802734375 66.10595703125 369.310302734375 C63.72314453124994 370.185302734375 63.72314453124994 370.185302734375 61.72314453125 370.185302734375 C60.69580464163653 367.10328306553464 60.76526421790038 365.49465117068456 60.97314453125 362.310302734375 C60.97314453125 350.1078112280976 54.10339537465447 339.9178768415706 48.00146484375 329.783447265625 C42.33101383541799 320.25038452466254 39.10573492632852 311.77203827920204 41.20361328125 300.634521484375 C43.7404833695424 291.94220011586043 49.65124934495623 285.6686883852043 55.34326171875 278.862548828125 C62.325104479464244 270.37612636419954 67.64859353126224 261.15882865128555 67.08251953125 249.884521484375 C65.84843541410851 240.61547664801864 60.72707769889871 234.22690230398484 55.164306640625 227.023193359375 C48.5394645802223 218.44228973676357 44.012854046315624 211.37237787209162 44.72314453125 200.185302734375 C46.62639976944513 190.80457545304648 49.75413595749515 181.78474748976143 52.84814453125 172.747802734375 C53.53320595930174 170.74072262247893 54.21679462139588 168.73318357476225 54.896697998046875 166.72434997558594 C55.50745510606009 164.920537229575 56.12320117703095 163.11841593076056 56.7392578125 161.31640625 C60.597859766756756 149.0368603285749 59.04566709623552 137.89263205116137 53.36767578125 126.454833984375 C49.922564485499464 120.34969037447928 45.63156983288604 113.48811116825368 38.72314453125 111.185302734375 C39.61001953125 112.113427734375 40.49689453125001 113.041552734375 41.41064453125 113.997802734375 C50.940204150729755 125.12688654530405 52.61622204564654 138.9617175217193 51.9052734375 153.019775390625 C51.074500139049945 162.89773672742388 46.168133113912546 172.01803869699003 41.985107421875 180.856689453125 C36.99685398333364 191.49929308724813 33.081789228874555 202.36750373081392 37.09814453125 213.997802734375 C39.34425586164977 219.06759688013452 42.63115472623144 223.36106102880467 45.927490234375 227.77978515625 C52.35015513067731 236.53211168377092 58.08541611449655 247.0163680145897 56.72314453125 258.185302734375 C54.5707521248286 265.651784962167 50.78630695250132 271.1737731013288 45.84814453125 277.060302734375 C37.05520826298596 287.9190971432937 30.097786839067794 298.5592324444116 31.36328125 313.124755859375 C32.41852068386635 319.1669680858553 35.71479342117618 324.6582851445168 38.56787109375 330.015380859375 C40.10350885675473 332.89973175489195 41.5808732864958 335.81168609446496 43.04931640625 338.730712890625 C43.726539296520656 340.07349328618494 44.412169030889004 341.41208179243563 45.10791015625 342.745361328125 C48.32687876987589 349.01970620796976 50.0071316774422 354.686973112942 49.97314453125 361.747802734375 C49.975722656250014 362.284697265625 49.975722656250014 362.284697265625 49.98876953125 365.001708984375 C49.70246971589469 368.43309647723635 49.170810489362 371.05618625348694 47.72314453125 374.185302734375 C45.69970703125 375.462646484375 45.69970703125 375.462646484375 43.34814453125 376.122802734375 C42.577285156250014 376.358701171875 41.80642578125 376.594599609375 41.01220703125 376.837646484375 C38.578282042483664 377.2073040338634 37.04101152083638 376.95263313047093 34.72314453125 376.185302734375 C34.86751953125 375.651630859375 35.01189453124999 375.117958984375 35.16064453125 374.568115234375 C39.649999176988786 356.5483445035624 32.8669217027317 342.61814975347 24.572265625 327.021240234375 C15.281541835400589 309.41028864338904 15.281541835400589 309.41028864338904 17.72314453125 299.185302734375 C20.626223217935944 292.00984078941735 24.758838313807814 286.2355341417184 29.66064453125 280.310302734375 C37.27336931487886 270.8317237272486 44.75159242687326 260.93805664010347 43.72314453125 248.185302734375 C41.22677585521322 239.8716002514088 36.6896867758324 233.6376109690642 31.41259765625 226.886474609375 C27.618313706812017 221.87556904754513 25.30635185123174 217.27808865573576 23.72314453125 211.185302734375 C19.20492830273963 210.10485972320947 16.38897731425058 210.1132368948189 11.97314453125 211.622802734375 C3.5346924957634656 214.39726347937588 -3.9068147899800465 213.76689226801662 -12.18310546875 210.743896484375 C-14.27685546875 210.185302734375 -14.27685546875 210.185302734375 -17.27685546875 211.185302734375 C-18.76455099002132 213.72752941831456 -20.101671756244144 216.23693444346918 -21.40185546875 218.872802734375 C-24.35692359823372 224.6976848484694 -27.492928913326722 230.2135596255294 -31.15185546875 235.622802734375 C-35.43857572917207 242.0999046571512 -39.099214953692666 248.42933123720036 -38.02685546875 256.435302734375 C-35.09680024879981 266.5832988620074 -27.121968736611137 275.52986999870717 -20.677490234375 283.689697265625 C-13.917661556176057 292.3473280344846 -11.222295103522214 300.2153028375543 -12.27685546875 311.185302734375 C-13.943840469324414 317.9000681580371 -17.18862387420225 324.03022851626406 -20.21044921875 330.216552734375 C-20.742509765624987 331.30879150390626 -21.274570312500003 332.4010302734375 -21.82275390625 333.5263671875 C-22.897120800335244 335.7164842334885 -23.984542050751003 337.90025735743325 -25.08642578125 340.07666015625 C-31.33177952246305 352.68276662599794 -32.767165908670904 363.7143714146123 -28.27685546875 377.185302734375 C-30.046932606412014 377.2664437916193 -31.81807644813506 377.3245577805061 -33.58935546875 377.372802734375 C-34.57548828124999 377.407607421875 -35.561621093750006 377.442412109375 -36.57763671875 377.478271484375 C-39.27685546874997 377.185302734375 -39.27685546874997 377.185302734375 -41.04638671875 376.075927734375 C-44.439282341931175 370.8627166816141 -44.546229698461076 363.2197242043556 -44.01123046875 357.193115234375 C-41.74826897126019 346.7196652267619 -36.33788772483183 336.7615794598583 -31.23388671875 327.407958984375 C-25.4778640360924 316.76671886605794 -23.737096256904408 307.9089967645436 -27.14404296875 296.122802734375 C-30.017423982843752 288.6718285185181 -34.79966631607061 282.67740052888786 -39.90185546875 276.622802734375 C-46.249839451719424 268.9965557650738 -50.77367320319061 261.3780794796729 -50.27685546875 251.185302734375 C-48.75739539691159 240.63640752299102 -41.90684879964283 230.91206183084236 -35.96435546875 222.310302734375 C-31.297771597321315 215.43723627156427 -28.526878020708693 207.6371965191844 -29.5048828125 199.2236328125 C-30.969457523521157 192.1907824725267 -33.81249066601225 185.8555779739269 -36.71435546875 179.310302734375 C-43.504471067580454 163.98123755856588 -49.846420354730185 146.9642019917187 -44.27685546875 130.185302734375 C-41.281519162139745 123.64523426592194 -37.901915218749906 117.7068498367978 -33.27685546875 112.185302734375 C-42.31512726728087 116.56749512154148 -46.92892779195745 125.12235789055768 -50.27685546875 134.185302734375 C-56.217089941473034 151.41817044951418 -50.239632775036654 167.09584748514348 -43.39990234375 182.890869140625 C-38.98467013816108 193.1293225275935 -36.082704709069674 203.2843763359432 -40.27685546875 214.185302734375 C-43.05017899460492 219.75013551412326 -46.61031566789737 224.66719785724948 -50.33935546875 229.622802734375 C-56.423675419661976 237.9100661157896 -61.05067236847839 246.6346069284628 -60.27685546875 257.185302734375 C-58.010215359459295 266.6170440780347 -52.807443998022734 273.63464101888684 -46.83935546875 281.060302734375 C-39.116407870488274 290.8318046484316 -33.12845250736868 299.093508974628 -34.27685546875 312.185302734375 C-35.86377591695168 321.27559704092164 -40.80360544584673 329.1545624273098 -45.16650390625 337.144775390625 C-51.72549057758576 349.19842767712987 -54.689371873816356 357.4347558988301 -54.27685546875 371.185302734375 C-55.694913775692584 370.9004790573395 -57.11125925825391 370.6071212946403 -58.52685546875 370.310302734375 C-58.921308593749984 370.22909179687497 -58.921308593749984 370.22909179687497 -60.91748046875 369.818115234375 C-63.24516690704064 369.1938019843699 -65.16717498485858 368.33691731044416 -67.27685546875 367.185302734375 C-68.49257384947082 350.4354050444438 -60.89283969353974 339.3498790639033 -51.84326171875 326.083740234375 C-47.65519222887923 319.118965331806 -47.612928636904144 309.4195165947412 -48.61279296875 301.536865234375 C-51.08405182182216 292.64675221747905 -58.23725479817401 285.4051975938246 -64.02685546875 278.497802734375 C-71.66739063215527 269.28964052882276 -74.21571522770036 261.1222339553152 -73.27685546875 249.185302734375 C-71.13673422663832 239.5676494415117 -65.51801299388597 231.77614713458823 -59.92919921875 223.849365234375 C-59.53047607421877 223.2813720703125 -59.13175292968751 222.71337890625 -58.720947265625 222.128173828125 C-57.58726187111057 220.52094125287186 -56.4402307691434 218.92314668387348 -55.29248046875 217.325927734375 C-50.35286539985347 209.62931820841993 -49.20021253986826 203.17425548966125 -50.27685546875 194.185302734375 C-51.5537625272855 189.66155935178557 -53.35055493961028 185.4670795582141 -55.27685546875 181.185302734375 C-56.09881855932787 179.28854110316217 -56.91294863339792 177.3885666989014 -57.7255859375 175.48779296875 C-58.48746660707124 173.7144820501471 -59.2645700696913 171.94773427192837 -60.04248046875 170.181396484375 C-64.40214032618042 159.59956385573852 -63.87433835262962 145.3387526206193 -60.21435546875 134.622802734375 C-57.512432483161575 128.13974039826485 -54.03973371593608 122.10614285818943 -50.27685546875 116.185302734375 C-60.95850828997584 122.29167761868456 -64.70771648806146 132.14278070787182 -68.35498046875 143.560302734375 C-72.0978177879703 157.71503295978994 -68.2861840624458 169.24127222054736 -63.51513671875 182.675537109375 C-59.917440182387566 193.218301554929 -57.264586887112586 203.78676516173456 -61.71826171875 214.450927734375 C-64.17198011825019 218.75569685630518 -67.40586641607072 222.29138175580937 -70.66748046875 226.001708984375 C-77.65397444685458 234.2188372414884 -82.59180333794234 243.78673972165225 -83.58935546875 254.560302734375 C-82.31469918761938 269.3463155954902 -72.2770092611344 280.0898693472202 -63.44091796875 291.310302734375 C-58.16481659837032 298.3197081650599 -56.672944902184355 303.6643291900923 -56.74169921875 312.415771484375 C-58.27080557469466 323.1864841375618 -65.48276991281324 332.69677593617985 -71.51513671875 341.443115234375 C-75.71482116436331 347.98009634484185 -77.70653388941838 354.4859614133982 -78.27685546875 362.185302734375 C-82.32967259001529 360.96003244189944 -85.7204631060465 359.4864977925949 -89.27685546875 357.185302734375 C-88.7257637531754 345.79607394583337 -83.2759275478201 337.7907996669983 -76.843505859375 328.714111328125 C-72.42282289930384 322.3460700588873 -69.56745171648156 316.1306247597816 -70.27685546875 308.185302734375 C-70.8364582841163 305.47338139836904 -71.52748288226107 302.8549425737418 -72.27685546875 300.185302734375 C-72.93685546875 300.185302734375 -73.59685546875 300.185302734375 -74.27685546875 300.185302734375 C-74.34001953125 301.189482421875 -74.40318359375 302.193662109375 -74.46826171875 303.228271484375 C-75.29592545751508 313.3456828113244 -77.81415884289805 320.49231092864073 -83.27685546875 329.185302734375 C-84.4702298619947 331.1487584526574 -85.654804781518 333.1172924783246 -86.837158203125 335.08740234375 C-87.60609918660873 336.36255360324765 -88.38247389504171 337.63326467136415 -89.167724609375 338.8984375 C-91.611902164627 342.8749326652425 -93.52738093793536 346.8559069017894 -95.27685546875 351.185302734375 C-99.83255899932149 349.87789669157786 -103.20754484918844 348.1062069172032 -107.02685546875 345.310302734375 C-107.49865234375 344.97127929687497 -107.49865234375 344.97127929687497 -109.88623046875 343.255615234375 C-112.16057676246815 341.28600161399817 -113.20870577846065 339.95503972198577 -114.27685546875 337.185302734375 C-112.29685546875 335.865302734375 -110.31685546875 334.545302734375 -108.27685546875 333.185302734375 C-111.15185546875001 327.310302734375 -111.15185546875001 327.310302734375 -112.27685546875 326.185302734375 C-115.99932541805903 326.55025076862097 -118.86385019860172 326.97440642621416 -122.21435546875 328.685302734375 C-125.27685546874999 329.185302734375 -125.27685546874999 329.185302734375 -127.39404296875 327.896240234375 C-133.58124552181846 322.7218893447982 -133.58124552181846 322.7218893447982 -134.27685546875 318.185302734375 C-129.8915635643311 315.21462112170417 -125.29194261492053 313.7258850603228 -120.27685546875 312.185302734375 C-121.5266230272132 308.53213602502103 -121.94784300264305 307.4046443784463 -125.27685546875 305.185302734375 C-131.5149590087715 305.39323951904237 -135.00443975673363 306.98050102707094 -140.27685546875 310.185302734375 C-141.26685546875 310.185302734375 -142.25685546875 310.185302734375 -143.27685546875 310.185302734375 C-145.10107421875003 308.216552734375 -145.10107421875003 308.216552734375 -146.96435546875 305.685302734375 C-147.2756640625 305.267646484375 -147.2756640625 305.267646484375 -148.85107421875 303.154052734375 C-149.32158203125 302.504365234375 -149.79208984375 301.854677734375 -150.27685546875 301.185302734375 C-145.77308346614865 296.36204118467833 -140.3085009998602 292.6662501394117 -133.62451171875 291.868896484375 C-131.5060019706549 291.8722432612282 -129.38851225901962 292.01500783193393 -127.27685546875 292.185302734375 C-126.45185546875 293.835302734375 -126.45185546875 293.835302734375 -122.27685546875 302.185302734375 C-111.31886756653012 303.43052863235454 -102.20507502321192 296.83507509209545 -93.96826171875 290.368896484375 C-93.08009765625 289.648310546875 -92.19193359375 288.927724609375 -91.27685546875 288.185302734375 C-90.8069921875 287.809541015625 -90.8069921875 287.809541015625 -88.42919921875 285.907958984375 C-87.71892578125 285.339482421875 -87.00865234375 284.771005859375 -86.27685546875 284.185302734375 C-87.01986347800387 280.39596188718025 -88.62024384752574 277.1578155557874 -90.27685546875 273.685302734375 C-94.63886768361765 264.5418540532101 -96.66034951854333 253.99463689751894 -93.6162109375 244.020751953125 C-90.2619700164372 235.70992572195667 -85.1517832790664 228.2685719042069 -80.10107421875 220.915771484375 C-74.61454198938873 212.70359583485995 -69.8333201422287 203.1437121742808 -71.83935546875 192.997802734375 C-72.28307735596853 191.38347244732338 -72.76932837029585 189.7807235670156 -73.27685546875 188.185302734375 C-73.90564705839151 186.1889956520588 -74.53385386192006 184.19250700141328 -75.161376953125 182.19580078125 C-75.6028649509841 180.8052010271004 -76.05249991332505 179.41715311538303 -76.511474609375 178.0322265625 C-81.31820329917917 163.26232775779292 -81.11806793258663 145.65692419436704 -74.15185546875 131.622802734375 C-73.53310546875 130.488427734375 -72.91435546875 129.354052734375 -72.27685546875 128.185302734375 C-72.11185546875001 127.690302734375 -72.11185546875001 127.690302734375 -71.27685546875 125.185302734375 C-80.42611368967677 132.07628142263297 -85.62195485408505 143.91621759641842 -87.27685546875 155.185302734375 C-87.85499612559124 162.5454415069369 -86.41591679081712 169.33595805093512 -84.83935546875 176.497802734375 C-78.57263083890965 205.12813290599854 -78.57263083890965 205.12813290599854 -86.226318359375 217.22509765625 C-86.75862060546875 218.03696533203126 -87.2909228515625 218.8488330078125 -87.83935546875 219.685302734375 C-91.86723377090586 226.103139522477 -95.6401368425275 232.49926454804546 -98.83935546875 239.372802734375 C-99.168388671875 240.076630859375 -99.497421875 240.780458984375 -99.83642578125 241.505615234375 C-101.43507914517491 245.0236655093692 -102.68246595059902 248.43466679859353 -103.58935546875 252.185302734375 C-105.59043661194676 258.90788905857846 -112.58595845582533 262.8270216814921 -118.20263671875 266.415771484375 C-123.03091637590128 268.8702430045975 -128.02014548298246 268.4013319118723 -133.27685546875 268.185302734375 C-132.61685546875 271.815302734375 -131.95685546875 275.445302734375 -131.27685546875 279.185302734375 C-132.45248046875 279.515302734375 -133.62810546875 279.845302734375 -134.83935546875 280.185302734375 C-140.302412561651 281.95122724051976 -145.1374694745067 284.73337243820265 -150.046630859375 287.667724609375 C-154.70541064801685 290.3226041972246 -154.70541064801685 290.3226041972246 -157.58544921875 289.630615234375 C-160.4535745090613 287.1797922380351 -161.6114154611524 284.5756627498415 -163.27685546875 281.185302734375 C-163.27685546875 280.195302734375 -163.27685546875 279.205302734375 -163.27685546875 278.185302734375 C-162.64779296875 277.882373046875 -162.01873046875 277.579443359375 -161.37060546875 277.267333984375 C-157.16482514157966 275.2087818664076 -153.13706598752776 273.15565259976296 -149.27685546875 270.497802734375 C-144.8485132729923 267.6121207297624 -140.45992499280476 266.9771605783278 -135.27685546875 266.185302734375 C-135.93685546875 262.885302734375 -136.59685546875 259.585302734375 -137.27685546875 256.185302734375 C-144.25164927830716 255.35022538030557 -148.48045765607228 258.1447364244124 -154.33935546875 261.685302734375 C-165.22086313563096 268.23190084290496 -165.22086313563096 268.23190084290496 -170.27685546875 267.185302734375 C-172.10888671875 266.009521484375 -172.10888671875 266.009521484375 -173.27685546875 264.185302734375 C-173.78857421875 261.704833984375 -173.78857421875 261.704833984375 -173.96435546875 258.997802734375 C-174.03009765625 258.096748046875 -174.09583984375 257.195693359375 -174.16357421875 256.267333984375 C-174.20095703125 255.580263671875 -174.23833984375 254.893193359375 -174.27685546875 254.185302734375 C-173.67099609375 254.03834960937502 -173.06513671875 253.89139648437504 -172.44091796875 253.739990234375 C-166.59499829258664 252.17508250567897 -161.96295424871823 249.96970827186277 -156.86279296875 246.743896484375 C-151.06002122698186 243.2464555101069 -144.98717644062498 240.30569743883527 -138.27685546875 239.185302734375 C-137.94685546875002 235.885302734375 -137.61685546875 232.585302734375 -137.27685546875 229.185302734375 C-146.85849043930307 230.5063839426763 -153.89024459155445 233.32080326679875 -162.2001953125 238.046142578125 C-167.6594078538192 241.07065447904017 -171.94885320369076 242.28574721477275 -178.27685546875 242.185302734375 C-180.31986700871147 237.66149146731743 -181.28641841739145 233.02158578303005 -182.27685546875 228.185302734375 C-181.53564453125 228.145341796875 -180.79443359375 228.105380859375 -180.03076171875 228.064208984375 C-170.80664179357308 227.1497001545839 -164.1833056811452 223.91337630273813 -156.22216796875 219.376708984375 C-151.1672163032116 216.5092982846939 -146.27848684570236 214.14525680251876 -140.46435546875 213.310302734375 C-136.48469435825217 212.4845907352581 -136.48469435825217 212.4845907352581 -134.71435546875 209.935302734375 C-134.2418184422238 206.96506999621036 -134.13719462455768 204.18801088450974 -134.27685546875 201.185302734375 C-145.70504777610807 201.7567123497429 -155.2761067741675 207.10651536489215 -165.46435546875 211.950927734375 C-169.56190308956366 213.74929585684322 -172.87097890386946 214.33910457023563 -177.33935546875 214.372802734375 C-178.19658203125 214.386982421875 -179.05380859375 214.401162109375 -179.93701171875 214.415771484375 C-182.27685546875 214.185302734375 -182.27685546875 214.185302734375 -185.27685546875 212.185302734375 C-185.6609682221893 209.57568173772634 -185.8797874420802 207.17949533180564 -185.96435546875 204.560302734375 C-185.998515625 203.853896484375 -186.03267578125 203.147490234375 -186.06787109375 202.419677734375 C-186.15036854750343 200.67544585501642 -186.21528881975524 198.9303987851923 -186.27685546875 197.185302734375 C-185.18888671875 197.231708984375 -184.10091796875 197.278115234375 -182.97998046875 197.325927734375 C-169.1326676170931 197.74357775069367 -159.0888155222118 194.3895863209074 -146.882080078125 188.003662109375 C-141.53830872522855 185.21315290836554 -136.4712481492879 183.11206570533298 -130.40185546875 182.560302734375 C-130.01126953125 182.522919921875 -130.01126953125 182.522919921875 -128.03466796875 182.333740234375 C-127.45458984375 182.284755859375 -126.87451171875 182.235771484375 -126.27685546875 182.185302734375 C-124.96058855215966 178.56556871375156 -124.27685546875 176.08963142472456 -124.27685546875 172.185302734375 C-136.703215999075 168.7174811910285 -150.60171731817584 177.94813261317861 -161.3984375 183.30908203125 C-165.2740375552597 185.1169230240141 -168.41436480135727 185.34856079691852 -172.65185546875 185.372802734375 C-173.77333984375 185.386982421875 -174.89482421875 185.401162109375 -176.05029296875 185.415771484375 C-179.34303709920846 185.18057547505654 -181.4169363677178 184.82164819939857 -184.27685546875 183.185302734375 C-186.37035717625298 180.425853549405 -187.2714385793378 178.82016217348578 -187.30126953125 175.323974609375 C-187.2173193359375 174.8009375 -187.2173193359375 174.8009375 -186.79248046875 172.154052734375 C-186.60403564453125 170.96545654296875 -186.4155908203125 169.7768603515625 -186.221435546875 168.55224609375 C-186.10682983398436 167.9142004394531 -186.10682983398436 167.9142004394531 -185.52685546875 164.685302734375 C-185.41215911865234 164.02724639892577 -185.29746276855468 163.36919006347657 -185.17929077148438 162.69119262695313 C-175.6689880041995 108.65630584935512 -146.94438046826394 62.05880102340761 -102.083984375 30.414306640625 C-97.99238054985052 27.631662266698697 -93.68499164550481 25.412818355607484 -89.27685546875 23.185302734375 C-88.02424611381463 22.48683686580777 -86.77444925936358 21.7833134136529 -85.52685546875 21.075927734375 C-59.16518722327638 6.301358229064974 -30.03801021331887 -0.0031296113995953334 0 0 Z M1.72314453125 12.185302734375 C1.6319030761718807 12.49814208984375 1.6319030761718807 12.49814208984375 1.170166015625 14.081298828125 C-0.9697750692494651 20.888879660350547 -3.2533985480879153 27.955743124678435 -8.27685546875 33.185302734375 C-15.425046386332212 36.30249165766894 -23.6384399597452 35.77074268273958 -31.27685546875 35.185302734375 C-31.27685546875 38.185302734375 -31.27685546875 38.185302734375 -29.84326171875 39.728271484375 C-29.181972656249997 40.270966796875 -28.520683593749993 40.813662109375 -27.83935546875 41.372802734375 C-27.118769531249995 41.976083984374995 -26.39818359374999 42.579365234375004 -25.65576171875 43.200927734375 C-24.870722656249995 43.855771484375 -24.08568359374999 44.510615234375 -23.27685546875 45.185302734375 C-21.605099374402585 46.65871488532526 -19.938299343609344 48.13777207602213 -18.27685546875 49.622802734375 C-17.513730468749998 50.302138671875 -16.750605468749995 50.981474609375 -15.96435546875 51.681396484375 C-15.407480468750009 52.177685546875 -14.850605468750018 52.673974609375 -14.27685546875 53.185302734375 C-14.873364478107533 55.395716829963774 -15.479416366048156 57.60355676729644 -16.08935546875 59.810302734375 C-16.425800781250018 61.040068359375 -16.76224609374998 62.269833984375 -17.10888671875 63.536865234375 C-18.21121809785234 66.98026827143718 -19.63434293294989 69.9755790970808 -21.27685546875 73.185302734375 C-21.27685546875 73.845302734375 -21.27685546875 74.505302734375 -21.27685546875 75.185302734375 C-27.642134807026622 72.61048814793685 -33.476528371568406 69.35024113387767 -39.42919921875 65.945068359375 C-54.31245811731145 57.53334656336128 -54.31245811731145 57.53334656336128 -63.27685546875 58.185302734375 C-62.83975017629916 61.57286875086906 -61.80891528062665 64.26738520569359 -60.33935546875 67.310302734375 C-57.96081070869988 72.43931016241037 -57.06775485586448 77.61778731192437 -56.27685546875 83.185302734375 C-56.86724609375 82.938447265625 -56.86724609375 82.938447265625 -59.85498046875 81.689208984375 C-61.412210980673336 81.04192642219 -62.969506036614376 80.39479912447362 -64.52685546875 79.747802734375 C-64.91550781249998 79.58505859375 -64.91550781249998 79.58505859375 -66.88232421875 78.761474609375 C-67.63642578125001 78.448876953125 -68.39052734375 78.136279296875 -69.16748046875 77.814208984375 C-69.858740234375 77.52618408203125 -70.55 77.2381591796875 -71.26220703125 76.94140625 C-74.75486801009887 75.63060025733216 -77.80025181831482 75.06069267353442 -81.52685546875 75.122802734375 C-82.76435546875 75.143427734375 -84.00185546875 75.16405273437499 -85.27685546875 75.185302734375 C-83.76377615039692 79.33657163344625 -81.72111203111072 82.9548983016502 -79.46435546875 86.747802734375 C-74.39641749836728 95.44718832072355 -70.36906461851414 104.29485948094452 -68.27685546875 114.185302734375 C-64.7158469323451 113.5616976116634 -61.52735314484224 112.61160389339803 -58.16357421875 111.294677734375 C-17.396774417107167 95.71382354636737 21.992576533473283 94.09229065077083 62.702880859375 110.1875 C63.68538818359377 110.57349365234376 64.66789550781249 110.9594873046875 65.68017578125 111.357177734375 C66.55649658203129 111.70876953125 67.43281738281246 112.060361328125 68.335693359375 112.422607421875 C70.72314453125 113.185302734375 70.72314453125 113.185302734375 74.72314453125 113.185302734375 C74.78501953124999 112.808896484375 74.78501953124999 112.808896484375 75.09814453125 110.904052734375 C77.6022987236455 98.00765864353798 83.69728842867079 87.16320289465503 90.72314453125 76.185302734375 C90.72314453125 75.525302734375 90.72314453125 74.865302734375 90.72314453125 74.185302734375 C83.45382347814785 74.55642376387888 77.34747856568202 76.07663213297361 70.59814453125 78.747802734375 C69.73705078124999 79.077158203125 68.87595703124998 79.406513671875 67.98876953125 79.745849609375 C65.89575255035595 80.54817278538438 63.80770030385901 81.36130293944318 61.72314453125 82.185302734375 C63.44010332753112 75.46054744894077 65.44176447245968 68.97028206189464 67.95361328125 62.497802734375 C68.72314453125 60.185302734375014 68.72314453125 60.185302734375014 68.72314453125 57.185302734375 C54.524370925054626 57.90727427367307 43.18464666565745 64.9118031128088 31.41796875 72.233154296875 C29.72314453124997 73.18530273437501 29.72314453124997 73.18530273437501 26.72314453125 74.185302734375 C26.55298828125001 73.567841796875 26.382832031250018 72.950380859375 26.20751953125 72.314208984375 C24.678660693439355 66.97133527989843 22.886386088309564 62.1168007130637 20.29736328125 57.193115234375 C19.72314453125 55.18530273437501 19.72314453125 55.18530273437501 20.483642578125 53.271240234375 C21.784189850515588 51.08257056817348 23.147270686092384 49.56231620646893 24.98095703125 47.802490234375 C25.60615234375001 47.192763671875 26.231347656249994 46.583037109375 26.87548828125 45.954833984375 C27.526464843750006 45.329638671875 28.17744140625001 44.704443359375 28.84814453125 44.060302734375 C30.146915058686318 42.812364712904866 31.441430913024988 41.559978436619275 32.73095703125 40.302490234375 C33.01785400390625 40.02719482421875 33.01785400390625 40.02719482421875 34.4697265625 38.634033203125 C35.72314453125 37.185302734375 35.72314453125 37.185302734375 35.72314453125 35.185302734375 C33.04292132867144 34.291895000182144 31.35913203412548 34.04178181990668 28.59814453125 33.974365234375 C28.203691406250016 33.960185546874996 28.203691406250016 33.960185546874996 26.20751953125 33.888427734375 C24.551496572702206 33.83635154070997 22.895209827082084 33.7920777566103 21.23876953125 33.755615234375 C20.844316406250016 33.740146484375 20.844316406250016 33.740146484375 18.84814453125 33.661865234375 C18.128847656250002 33.6420458984375 17.409550781250005 33.6222265625 16.66845703125 33.601806640625 C14.151863473476709 33.06298778902344 13.309291880841556 32.18663735148806 11.72314453125 30.185302734375 C10.78759765625 28.40771484375 10.78759765625 28.40771484375 10.00439453125 26.462646484375 C9.858085937499993 26.1110546875 9.858085937499993 26.1110546875 9.11767578125 24.331787109375 C8.519962374258853 22.855774307394626 7.9236138746095435 21.37920806930905 7.32861328125 19.902099609375 C5.030812637439055 14.390414805167705 5.030812637439055 14.390414805167705 1.72314453125 12.185302734375 Z M-148.27685546875 89.185302734375 C-150.14987930624167 91.05832657186667 -149.4487539311686 93.766712187 -149.515625 96.2666015625 C-150.21458728920962 120.380800540232 -160.73894892489784 138.84536728997418 -174.35107421875 158.122802734375 C-174.627578125 158.514677734375 -174.627578125 158.514677734375 -176.02685546875 160.497802734375 C-176.49607421875 161.133310546875 -176.96529296875 161.76881835937502 -177.44873046875 162.423583984375 C-178.27685546875 164.185302734375 -178.27685546875 164.185302734375 -178.04248046875 166.353271484375 C-177.27685546875 168.185302734375 -177.27685546875 168.185302734375 -175.27685546875 169.185302734375 C-167.0469919474283 169.96909926021516 -160.55014276374294 169.50628844523672 -153.19873046875 165.689208984375 C-141.57196461280083 159.70484420557761 -130.3051915753154 155.77479654402424 -117.13232421875 156.407958984375 C-114.27685546875 156.185302734375 -114.27685546875 156.185302734375 -112.57763671875 154.927490234375 C-112.14837890625 154.352568359375 -111.71912109375 153.777646484375 -111.27685546875 153.185302734375 C-110.80248046875 152.578154296875 -110.32810546875 151.971005859375 -109.83935546875 151.345458984375 C-109.32373046875 150.653232421875 -108.80810546875 149.961005859375 -108.27685546875 149.247802734375 C-100.91446592768378 139.74644528453587 -93.44320860713327 131.7129791199916 -83.27685546875 125.185302734375 C-80.15185546874999 122.872802734375 -80.15185546874999 122.872802734375 -78.27685546875 121.185302734375 C-78.27685546875 120.525302734375 -78.27685546875 119.865302734375 -78.27685546875 119.185302734375 C-83.26110312184267 116.23108938690011 -87.18638863592896 115.57384771168043 -92.83935546875 115.560302734375 C-93.65202880859376 115.55651611328125 -94.4647021484375 115.5527294921875 -95.302001953125 115.548828125 C-105.92336122077432 115.83856580295983 -116.7937179877905 119.44373399389525 -126.27685546875 124.185302734375 C-126.30263671875 123.579443359375 -126.32841796875 122.97358398437501 -126.35498046875 122.349365234375 C-127.18707678534199 110.05703328472057 -132.2102547219435 100.36171073598379 -141.46435546875 92.185302734375 C-145.3815066315407 89.39977301861272 -145.3815066315407 89.39977301861272 -148.27685546875 89.185302734375 Z M149.18798828125 91.880615234375 C148.77097656249998 92.281513671875 148.77097656249998 92.281513671875 146.66064453125 94.310302734375 C146.24234375000003 94.703466796875 146.24234375000003 94.703466796875 144.12548828125 96.693115234375 C136.3132956700244 104.79747114650826 133.38221550323095 113.40800750702795 130.72314453125 124.185302734375 C129.70994140624998 123.77538085937499 128.69673828125002 123.36545898437501 127.65283203125 122.943115234375 C126.30130713175981 122.39875103874701 124.94974251537411 121.85448544333883 123.59814453125 121.310302734375 C123.26556640625 121.175595703125 123.26556640625 121.175595703125 121.58251953125 120.493896484375 C119.63445470429212 119.71085081863703 117.67941305385261 118.94756846518611 115.72314453125 118.185302734375 C115.245546875 117.991298828125 115.245546875 117.991298828125 112.82861328125 117.009521484375 C108.57407171385347 115.88032869101568 104.54355245067438 115.85585413453191 100.16064453125 115.872802734375 C99.32339843749997 115.856689453125 98.48615234375 115.840576171875 97.62353515625 115.823974609375 C92.9444454989611 115.82026986697018 89.36593471939858 115.88518810584775 85.72314453125 119.185302734375 C85.72314453125 120.505302734375 85.72314453125 121.82530273437499 85.72314453125 123.185302734375 C87.34033203125 124.572021484375 87.34033203125 124.572021484375 89.59814453125 125.872802734375 C98.97041647652935 131.73414522052934 109.7301594019371 140.66909543213893 114.98486328125 150.560302734375 C116.37185924234603 153.14076033641416 117.28658220675311 154.51980443661762 119.72314453125 156.185302734375 C123.41084794565649 156.69779323909614 126.92081697248574 156.85816391320813 130.634033203125 156.89990234375 C141.1788463755534 157.07137137927782 149.52867468712992 160.95630090553828 158.66064453125 165.997802734375 C166.0582006444243 169.84720976159238 172.51628266148612 170.36068345843498 180.72314453125 169.185302734375 C181.71314453125 168.525302734375 182.70314453125002 167.865302734375 183.72314453125 167.185302734375 C183.17195959419155 163.29978916572833 182.14020038180968 160.99189671993994 179.78564453125 157.872802734375 C174.71515218352818 150.87865968153812 170.17476944617914 143.58403121731155 165.72314453125 136.185302734375 C165.45759765625002 135.747666015625 165.45759765625002 135.747666015625 164.11376953125 133.532958984375 C156.82903087652198 120.37995863556051 156.1058891636518 105.8451177148321 156.72314453125 91.185302734375 C153.33126216927621 90.00815572503168 152.2425028691709 89.83799685046489 149.18798828125 91.880615234375 Z M-25.90966796875 113.669677734375 C-27.21435546875 115.185302734375 -27.21435546875 115.185302734375 -29.27685546875 118.185302734375 C-29.895605468750006 119.05155273437501 -30.51435546875001 119.917802734375 -31.15185546875 120.810302734375 C-32.465676221779546 123.58392432410403 -32.14749369452508 124.35871013836547 -31.27685546875 127.185302734375 C-30.70966796875001 127.19819335937501 -30.70966796875001 127.19819335937501 -27.83935546875 127.263427734375 C-11.521499143431015 127.79692741474395 -11.521499143431015 127.79692741474395 -6.27685546875 132.185302734375 C-4.9540918860334955 135.49505023962703 -4.5229571856473 138.64479394355706 -4.27685546875 142.185302734375 C-4.19435546874999 143.319677734375 -4.111855468750008 144.454052734375 -4.02685546875 145.622802734375 C-4.27685546875 148.185302734375 -4.27685546875 148.185302734375 -6.27685546875 151.185302734375 C-6.905917968750003 151.101513671875 -7.534980468750007 151.017724609375 -8.18310546875 150.931396484375 C-12.402033568585694 150.42944570141262 -16.25639202618555 150.03683052207532 -20.46435546875 150.747802734375 C-24.844280575096633 151.250417090841 -27.184895090527903 150.634538701662 -31.27685546875 149.185302734375 C-34.10774754495867 152.01619481058367 -35.21211275219531 153.66736100193737 -35.71435546875 157.685302734375 C-34.74624490997235 174.26809972505026 -27.479838603325533 186.66708356856293 -15.53076171875 197.814208984375 C-9.84883374095304 202.3788273838042 -2.876905370377358 203.59620365956326 4.16064453125 204.747802734375 C14.135088331223244 203.17289055543188 22.745550006149045 197.17394671866418 28.72314453125 189.185302734375 C35.65362941345501 178.09469829886748 41.49850738519439 165.42164865318674 38.72314453125 152.185302734375 C38.06314453125 151.525302734375 37.40314453125001 150.865302734375 36.72314453125 150.185302734375 C34.47314453125 150.243896484375 34.47314453125 150.243896484375 31.72314453125 150.622802734375 C27.691880064228684 151.10485932635783 24.28936049349548 151.08375004475354 20.28564453125 150.435302734375 C17.82861328125 150.111083984375 17.82861328125 150.111083984375 15.72314453125 150.185302734375 C13.09814453125 152.622802734375 13.09814453125 152.622802734375 11.72314453125 155.185302734375 C10.733144531249991 154.85530273437502 9.74314453125001 154.525302734375 8.72314453125 154.185302734375 C6.573731698775816 148.6493150321304 6.8860625629720005 140.89303880359302 8.53564453125 135.247802734375 C11.983795340691813 130.4203916011565 15.99513617295986 129.24843139480006 21.72314453125 128.185302734375 C27.390388457916202 127.7720529528703 33.05167707149934 127.94594420148985 38.72314453125 128.185302734375 C38.07349071670541 121.84625642275824 37.600192506224175 117.61615270312815 32.72314453125 113.185302734375 C16.66548954075418 102.8828249749861 -10.6932496664827 99.83657018685928 -25.90966796875 113.669677734375 Z M-33.27685546875 137.185302734375 C-33.46435546875 139.872802734375 -33.46435546875 139.872802734375 -33.27685546875 142.185302734375 C-31.46435546875 142.810302734375 -31.46435546875 142.810302734375 -29.27685546875 143.185302734375 C-28.28685546874999 142.525302734375 -27.29685546875001 141.865302734375 -26.27685546875 141.185302734375 C-22.92138671875 141.208740234375 -22.92138671875 141.208740234375 -19.08935546875 141.560302734375 C-17.817050781250003 141.671162109375 -16.544746093750007 141.782021484375 -15.23388671875 141.896240234375 C-14.745976562500005 141.943935546875 -14.745976562500005 141.943935546875 -12.27685546875 142.185302734375 C-13.822284359161188 138.8540449039331 -15.144963805018762 137.17832470220395 -18.27685546875 135.185302734375 C-21.037330894298748 134.26514425919208 -22.910478160927312 133.99263028053144 -25.77685546875 133.935302734375 C-26.55029296875 133.909521484375 -27.32373046875 133.883740234375 -28.12060546875 133.857177734375 C-30.810531059988136 134.2665142373895 -31.668313467467698 135.02526061836733 -33.27685546875 137.185302734375 Z M22.97314453125 135.685302734375 C22.173925781250006 135.963740234375 21.37470703125001 136.242177734375 20.55126953125 136.529052734375 C19.94798828124999 136.745615234375 19.34470703125001 136.962177734375 18.72314453125 137.185302734375 C18.393144531249987 138.835302734375 18.063144531250003 140.485302734375 17.72314453125 142.185302734375 C18.23876953125 142.020302734375 18.75439453125 141.855302734375 19.28564453125 141.685302734375 C25.09796430765641 140.49303201100957 30.260783197999274 141.38235140558285 35.90283203125 142.845458984375 C36.503535156249995 142.957607421875 37.10423828124999 143.069755859375 37.72314453125 143.185302734375 C38.72314453125 142.185302734375 38.72314453125 142.185302734375 38.78564453125 139.622802734375 C38.765019531250005 138.818427734375 38.74439453125001 138.014052734375 38.72314453125 137.185302734375 C37.65064453125001 136.690302734375 36.57814453124999 136.195302734375 35.47314453125 135.685302734375 C34.86986328124999 135.406865234375 34.26658203125001 135.128427734375 33.64501953125 134.841552734375 C29.765142047089654 133.51671652027147 26.669295305863187 134.38077893157035 22.97314453125 135.685302734375 Z " fill="#000000" transform="translate(196.27685546875,7.814697265625)"/>
<path d="M0 0 C7.310648648514956 3.3219199497397938 13.692585979215039 7.477960996476455 18.35546875 14.0703125 C16.404487897210487 16.021293352789513 12.70871946391975 15.324463580824442 10.0390625 15.38671875 C9.308007965087882 15.407499847412112 8.576953430175791 15.428280944824223 7.8237457275390625 15.449691772460938 C5.480252189478222 15.515262739483433 3.1366433649304497 15.574106817487177 0.79296875 15.6328125 C-0.7923298006375603 15.675990579467538 -2.3776165417161224 15.71960463015104 -3.962890625 15.763671875 C-7.856651624705137 15.87095169585561 -11.750528971485892 15.97219739762474 -15.64453125 16.0703125 C-16.304531249999997 14.750312500000007 -16.964531249999993 13.4303125 -17.64453125 12.0703125 C-15.268975602797838 10.024608229587159 -12.866290346325371 8.013660770894134 -10.45703125 6.0078125 C-9.783496093749989 5.427089843749997 -9.109960937500006 4.846367187499993 -8.416015625 4.248046875 C-3.3718054076953194 0.08964918366102381 -3.3718054076953194 0.08964918366102381 0 0 Z " fill="#000000" transform="translate(198.64453125,74.9296875)"/>
<path d="M0 0 C4.949999999999989 0 9.900000000000006 0 15 0 C15 1.3199999999999932 15 2.6399999999999864 15 4 C10.65895204099047 6.236297433429144 7.72484890703339 6.03087612517092 3 5 C0.5625 3.9375 0.5625 3.9375 -1 3 C-0.6699999999999875 2.009999999999991 -0.3400000000000034 1.0200000000000102 0 0 Z " fill="#000000" transform="translate(190,172)"/>
<path d="M0 0 C9.900000000000006 0.3300000000000125 19.80000000000001 0.6599999999999966 30 1 C21.000756048387103 11.499117943548384 21.000756048387103 11.499117943548384 14.0859375 12.12890625 C9.076784609144113 11.819351857868469 5.699984215175505 8.610624528131808 2.0625 5.4375 C0 3 0 3 0 0 Z " fill="#000000" transform="translate(184,185)"/>
<path d="M0 0 C4.949999999999989 0 9.899999999999977 0 15 0 C15.329999999999984 1.3199999999999932 15.660000000000025 2.6399999999999864 16 4 C14.019999999999982 4 12.04000000000002 4 10 4 C10 9.939999999999998 10 15.879999999999995 10 22 C8.680000000000007 22.329999999999984 7.360000000000014 22.660000000000025 6 23 C5 22 5 22 4.886474609375 20.234130859375 C4.889093017578148 19.859698486328114 4.889093017578148 19.859698486328114 4.90234375 17.96484375 C4.905566406249989 17.15595703125001 4.908789062499977 16.347070312500023 4.912109375 15.513671875 C4.920488281250016 14.66353515625002 4.928867187499975 13.813398437499984 4.9375 12.9375 C4.9420117187499955 12.08349609375 4.946523437499991 11.2294921875 4.951171875 10.349609375 C4.9629962661147715 8.23304336545499 4.980932313967742 6.116513149577827 5 4 C3.019999999999982 4 1.0400000000000205 4 -1 4 C-0.6700000000000159 2.680000000000007 -0.339999999999975 1.3600000000000136 0 0 Z " fill="#000000" transform="translate(332,364)"/>
<path d="M0 0 C0.42281250000002046 0.041249999999990905 0.42281250000002046 0.041249999999990905 2.5625 0.25 C4.659657848274321 3.3957367724114533 5.082545590182008 5.264562511819406 5.6875 8.9375 C5.855078124999977 9.931367187499973 6.022656250000011 10.925234375000002 6.1953125 11.94921875 C6.316484375000016 12.708476562499982 6.437656249999975 13.46773437500002 6.5625 14.25 C7.222500000000025 14.25 7.882499999999993 14.25 8.5625 14.25 C8.686249999999973 13.05374999999998 8.810000000000002 11.857500000000016 8.9375 10.625 C9.385750535753402 6.9740318682112274 10.266968370670838 3.7047510115443743 11.5625 0.25 C13.562047460114115 0.2074564370188341 15.5629163630731 0.2091921706749531 17.5625 0.25 C18.5625 1.25 18.5625 1.25 18.676025390625 3.291259765625 C18.67078857421876 4.165808105468727 18.665551757812523 5.040356445312511 18.66015625 5.94140625 C18.65693359375001 6.885644531250023 18.653710937500023 7.829882812499989 18.650390625 8.802734375 C18.642011718749984 9.795957031249998 18.633632812500025 10.789179687499995 18.625 11.8125 C18.620488281250005 12.809589843750018 18.61597656250001 13.80667968749998 18.611328125 14.833984375 C18.599500067051622 17.3060484862051 18.583018492319525 19.777995179165885 18.5625 22.25 C16.625 22.8125 16.625 22.8125 14.5625 23.25 C13.5625 22.25 13.5625 22.25 13.46484375 19.52734375 C13.497395833333314 16.434895833333314 13.529947916666686 13.342447916666686 13.5625 10.25 C12.242500000000007 14.54000000000002 10.922500000000014 18.829999999999984 9.5625 23.25 C7.912500000000023 22.920000000000016 6.262499999999989 22.589999999999975 4.5625 22.25 C3.572499999999991 18.29000000000002 2.582499999999982 14.329999999999984 1.5625 10.25 C1.232500000000016 14.54000000000002 0.902499999999975 18.829999999999984 0.5625 23.25 C-0.7574999999999932 22.920000000000016 -2.0774999999999864 22.589999999999975 -3.4375 22.25 C-3.4663781396471336 18.770850591130625 -3.484256870160948 15.291731694435441 -3.5 11.8125 C-3.508378906250016 10.819277343750002 -3.516757812499975 9.826054687500005 -3.525390625 8.802734375 C-3.5286132812499886 7.858496093749977 -3.5318359374999773 6.914257812500011 -3.53515625 5.94140625 C-3.5403930664062386 5.066857910156273 -3.5456298828124773 4.192309570312489 -3.551025390625 3.291259765625 C-3.3839882369169345 0.2878239760485144 -3.001871835754457 0.30788429084662994 0 0 Z " fill="#000000" transform="translate(354.4375,363.75)"/>
</svg>
